<?xml version="1.0" standalone="no"?>
<!DOCTYPE svg PUBLIC "-//W3C//DTD SVG 20010904//EN"
 "http://www.w3.org/TR/2001/REC-SVG-20010904/DTD/svg10.dtd">
<svg version="1.0" xmlns="http://www.w3.org/2000/svg"
 width="687.000000pt" height="660.000000pt" viewBox="0 0 687.000000 660.000000"
 preserveAspectRatio="xMidYMid meet">
<metadata>
Created by potrace 1.10, written by Peter Selinger 2001-2011
</metadata>
<g transform="translate(0.000000,660.000000) scale(0.100000,-0.100000)"
fill="#000000" stroke="none">
<path d="M5960 6583 c0 -16 57 -65 100 -86 8 -4 29 -16 45 -27 17 -11 40 -24
52 -29 60 -27 180 -194 258 -360 14 -29 25 -60 25 -68 0 -8 7 -28 16 -44 20
-39 15 -266 -7 -319 -38 -92 -120 -176 -217 -222 -61 -30 -77 -33 -179 -36
-109 -4 -112 -3 -170 28 -32 18 -64 38 -72 43 -7 6 -21 16 -31 22 -55 31 -150
99 -150 106 0 5 -4 9 -10 9 -21 0 -114 79 -254 215 -71 70 -173 145 -196 145
-7 0 -24 6 -38 14 -38 19 -126 46 -150 46 -11 0 -36 7 -55 15 -25 10 -72 15
-152 15 -108 0 -120 -2 -175 -29 -46 -23 -60 -26 -64 -15 -3 7 -22 20 -42 29
-48 20 -461 24 -539 5 -27 -6 -79 -15 -115 -20 -80 -10 -180 -27 -240 -42 -25
-6 -61 -14 -80 -18 -65 -15 -119 -40 -195 -90 -16 -11 -38 -23 -47 -26 -10 -4
-18 -10 -18 -15 0 -5 -10 -14 -22 -19 -13 -6 -36 -19 -53 -30 -16 -11 -37 -22
-45 -26 -8 -3 -26 -10 -40 -16 -14 -6 -41 -14 -60 -19 -19 -4 -53 -13 -75 -19
-23 -7 -121 -13 -232 -13 -119 -1 -194 -6 -195 -12 -2 -5 8 -11 22 -13 14 -1
44 -10 67 -18 50 -18 211 -15 311 5 84 18 98 5 46 -41 -20 -18 -42 -37 -49
-43 -21 -19 -70 -51 -89 -59 -15 -5 -17 -9 -8 -18 9 -9 17 -9 34 0 13 6 34 14
48 17 22 5 50 16 110 39 8 4 29 15 45 26 17 11 40 24 52 29 11 5 24 15 28 20
9 16 35 13 35 -4 0 -8 -6 -15 -12 -15 -17 0 -98 -72 -98 -87 0 -20 17 -24 47
-12 50 20 158 74 164 82 6 8 35 26 67 43 8 4 28 20 45 35 17 16 36 29 42 29 5
0 28 16 49 36 21 20 57 48 80 62 23 15 46 32 51 38 21 23 118 89 145 100 8 3
29 12 45 19 61 26 131 45 168 45 38 0 51 -16 20 -26 -32 -10 -87 -37 -131 -66
-24 -15 -46 -28 -49 -28 -18 0 -209 -169 -353 -312 -194 -193 -245 -230 -415
-303 -48 -20 -180 -45 -243 -45 -57 0 -153 27 -175 49 -6 6 -15 11 -20 11 -18
0 -78 54 -105 94 -34 50 -58 155 -70 301 -10 118 -3 160 37 225 11 19 26 46
32 60 6 14 21 39 35 57 13 17 24 34 24 38 0 7 116 163 139 186 34 34 61 70 61
79 0 6 -11 10 -25 10 -23 0 -42 -7 -145 -53 -56 -24 -287 -259 -319 -323 -12
-24 -26 -46 -32 -49 -5 -4 -9 -14 -9 -23 0 -9 -7 -30 -15 -46 -8 -15 -15 -38
-15 -50 0 -45 -12 -50 -94 -37 -42 6 -111 11 -153 11 -42 0 -102 6 -132 14
-31 8 -106 20 -167 26 -142 14 -243 -1 -369 -55 -74 -32 -330 -164 -380 -196
-16 -10 -39 -23 -50 -29 -11 -5 -47 -26 -80 -45 -33 -19 -70 -39 -82 -44 -11
-6 -24 -15 -28 -20 -3 -6 -13 -11 -21 -11 -16 0 -149 -98 -199 -147 -33 -32
-172 -138 -220 -167 -46 -28 -90 -79 -108 -125 -17 -41 -23 -101 -11 -101 4 0
25 21 47 46 36 41 187 164 202 164 4 0 21 11 38 24 28 20 203 116 213 116 9 0
3 -37 -7 -47 -12 -12 -24 -33 -59 -101 -25 -49 -15 -81 13 -39 72 110 545 587
582 587 3 0 22 12 40 26 44 34 183 94 216 94 15 0 32 -7 39 -15 19 -23 1 -51
-71 -110 -91 -75 -120 -116 -118 -164 3 -38 -13 -71 -34 -71 -27 0 -160 -76
-187 -106 -16 -19 -41 -60 -55 -92 -15 -31 -31 -65 -36 -75 -18 -34 -3 -28 47
16 119 105 216 167 263 167 27 0 31 -3 31 -29 0 -22 -19 -49 -82 -117 -45 -49
-84 -91 -87 -94 -3 -3 -10 -13 -16 -22 -5 -9 -26 -40 -46 -70 -20 -29 -40 -63
-43 -75 -12 -37 18 -28 47 15 42 60 114 125 131 119 12 -5 13 -13 5 -39 -15
-52 -12 -98 7 -98 15 0 53 37 54 52 2 41 240 298 276 298 36 0 45 -28 27 -84
-12 -35 -13 -50 -5 -58 20 -20 122 77 148 142 3 8 12 29 19 45 20 43 39 178
30 212 -32 129 -24 176 34 194 48 15 239 22 326 12 l70 -8 5 -132 c4 -105 9
-136 22 -149 18 -19 38 -11 38 15 0 10 9 26 20 36 20 18 21 18 42 -2 30 -30
48 -86 55 -171 3 -40 9 -75 13 -77 4 -3 20 13 35 35 33 47 50 52 92 25 32 -20
44 -46 68 -150 21 -92 101 -88 236 11 76 55 117 76 148 72 25 -3 26 -5 23 -57
l-4 -55 34 26 c18 14 65 55 103 92 75 71 167 138 194 140 11 1 17 -10 21 -37
3 -21 9 -38 13 -38 8 0 107 125 107 135 0 3 20 35 45 72 25 36 45 67 45 70 0
11 44 64 53 64 6 0 7 -23 4 -55 -3 -34 -2 -57 5 -61 13 -8 89 73 130 139 16
26 33 47 37 47 4 0 17 18 30 40 36 65 134 154 228 207 96 55 259 73 191 21
-32 -24 -14 -40 32 -28 19 5 80 25 135 45 131 48 155 52 171 30 11 -15 19 -16
63 -6 72 15 285 -15 379 -55 18 -8 41 -14 50 -14 10 0 27 -7 38 -15 10 -8 26
-15 34 -15 22 0 140 -60 180 -91 20 -15 47 -48 60 -74 50 -94 100 -164 118
-165 6 0 12 11 12 24 0 14 4 27 9 30 5 3 46 -35 92 -86 46 -50 99 -107 118
-127 l34 -36 15 23 c12 18 24 22 69 22 30 0 67 -6 81 -14 36 -19 133 -46 163
-46 29 0 137 33 177 54 16 8 40 26 53 40 13 14 27 26 30 26 20 0 151 130 184
180 38 59 59 166 47 236 -27 152 -57 233 -114 305 -15 20 -28 42 -28 48 0 6
-4 11 -8 11 -12 0 -83 100 -78 109 15 24 206 -121 206 -155 0 -7 6 -14 13 -17
7 -2 21 -22 32 -43 11 -22 24 -45 29 -52 20 -29 46 -118 46 -160 0 -45 -21
-124 -46 -174 -8 -14 -14 -36 -14 -47 0 -18 6 -21 41 -21 42 0 79 -14 79 -30
0 -18 -65 -83 -97 -97 -37 -15 -44 -33 -12 -33 33 0 79 -32 79 -54 0 -24 -77
-96 -102 -96 -9 0 -20 -4 -23 -10 -3 -5 -17 -10 -31 -10 -32 0 -32 -29 1 -60
32 -30 32 -48 -1 -56 -28 -7 -62 7 -107 43 -16 13 -33 23 -38 23 -15 0 2 -52
28 -86 28 -37 29 -50 6 -62 -24 -12 -73 9 -109 47 -16 17 -32 31 -36 31 -15 0
-8 -43 14 -78 21 -34 21 -35 3 -48 -44 -33 -110 -7 -184 71 -28 30 -51 59 -51
64 0 6 -10 11 -21 11 -19 0 -21 -4 -16 -35 3 -19 17 -50 31 -68 27 -35 25 -47
-7 -47 -45 0 -100 56 -153 155 -12 21 -26 41 -32 43 -15 5 -25 -60 -18 -113 9
-58 -9 -67 -63 -32 -51 34 -91 85 -136 172 -43 82 -58 100 -79 92 -11 -4 -16
-19 -16 -47 0 -81 -61 -61 -121 41 -70 118 -135 173 -121 104 3 -17 0 -25 -9
-26 -34 -3 -65 4 -80 17 -8 8 -20 14 -25 14 -6 0 -15 5 -22 12 -20 20 -85 40
-139 43 -29 2 -57 6 -63 10 -18 11 -11 34 15 51 40 26 25 38 -50 39 -85 0 -92
13 -35 65 36 33 40 41 26 46 -10 4 -33 -1 -52 -10 -73 -34 -104 -8 -104 86 0
31 -4 59 -9 62 -5 3 -21 -10 -35 -29 -35 -46 -53 -44 -66 5 -6 22 -16 40 -23
40 -7 -1 -21 -20 -33 -43 -28 -59 -52 -59 -93 -2 -18 25 -40 45 -51 45 -15 0
-18 -8 -17 -49 1 -28 -3 -55 -10 -62 -15 -15 -73 -14 -120 2 -19 6 -37 9 -39
6 -10 -9 16 -47 32 -47 10 0 14 -8 12 -22 -2 -19 -11 -24 -50 -28 -26 -3 -50
-9 -54 -12 -9 -10 5 -28 22 -28 23 0 16 -29 -8 -35 -13 -3 -47 -6 -76 -7 -66
-4 -73 -22 -9 -26 38 -3 47 -7 47 -21 0 -21 -19 -31 -55 -31 -13 0 -26 -4 -29
-9 -3 -5 -18 -12 -32 -15 -15 -4 -42 -18 -60 -32 -35 -27 -67 -29 -71 -4 -8
60 -15 90 -23 90 -4 0 -18 -21 -30 -47 -46 -103 -55 -119 -88 -161 -37 -46
-52 -47 -52 -1 0 16 -4 29 -8 29 -4 0 -35 -25 -67 -55 -55 -50 -61 -53 -77
-38 -19 17 -11 28 -102 -153 -28 -56 -50 -79 -66 -69 -5 3 -10 15 -10 25 0 36
-19 30 -57 -17 -21 -27 -46 -54 -55 -61 -9 -7 -24 -19 -32 -27 -19 -19 -32
-19 -40 0 -7 18 -29 11 -77 -27 -20 -15 -40 -28 -44 -28 -3 0 -21 -12 -40 -26
-33 -25 -34 -25 -45 -5 -16 30 -43 26 -100 -15 -8 -6 -33 -15 -54 -22 -42 -12
-86 2 -103 32 -6 10 -34 16 -93 19 -102 5 -151 16 -205 46 -42 23 -135 117
-135 136 0 7 -11 17 -24 23 -24 11 -24 10 -14 -26 15 -53 71 -134 135 -192 53
-48 163 -120 184 -120 6 0 23 -7 37 -14 58 -32 154 -47 233 -36 163 22 253 42
301 66 29 15 68 19 68 6 0 -10 -56 -52 -70 -52 -5 0 -10 -4 -10 -8 0 -5 -19
-22 -43 -39 -34 -23 -46 -40 -56 -76 -36 -128 9 -299 87 -328 17 -7 43 -5 84
6 85 22 93 21 211 -21 59 -22 215 -18 268 5 45 20 89 55 89 70 0 12 -56 31
-90 31 -18 0 -33 10 -48 30 -22 30 -52 40 -52 19 0 -24 -84 -70 -131 -71 -15
-1 -40 9 -57 21 -31 22 -52 27 -52 13 0 -19 -61 -42 -113 -42 -46 0 -57 4 -70
23 -9 14 -12 29 -7 37 11 17 2 40 -27 67 -20 19 -23 32 -23 97 0 66 3 78 26
105 14 17 32 31 39 31 7 0 18 7 25 15 7 8 21 15 31 15 18 0 119 93 119 109 0
5 28 22 63 39 102 49 123 55 145 43 12 -6 30 -11 41 -11 26 0 37 -19 20 -35
-14 -13 -68 -40 -129 -67 -124 -53 -172 -83 -230 -145 -60 -63 -72 -97 -31
-86 11 3 26 11 32 19 13 15 65 19 73 5 3 -5 -4 -20 -17 -33 -49 -55 -75 -136
-48 -153 11 -6 81 62 81 79 1 6 18 29 40 50 34 34 40 37 46 22 4 -10 4 -49 0
-87 -5 -54 -3 -69 7 -69 12 0 57 51 57 66 0 13 62 84 91 105 27 19 34 20 55 9
13 -8 36 -33 49 -57 28 -47 36 -51 55 -28 9 10 10 30 6 63 -17 118 -18 158 -3
194 24 56 30 136 16 208 -19 102 -22 178 -9 210 7 16 37 52 67 79 30 28 73 74
95 103 36 49 44 54 106 70 86 23 185 23 217 2 14 -9 34 -31 46 -50 29 -47 21
-74 -70 -238 -56 -100 -31 -97 71 9 121 126 174 165 226 165 65 0 110 -26 196
-116 45 -46 87 -84 94 -84 13 0 17 36 5 42 -12 5 -48 60 -62 96 -17 41 -4 59
48 67 20 3 56 12 81 20 25 8 60 15 78 15 18 0 41 4 50 9 9 4 38 11 64 14 41 6
51 3 78 -19 21 -18 30 -35 30 -55 0 -31 31 -86 71 -129 99 -105 318 -217 462
-237 27 -4 43 -13 55 -32 9 -14 35 -51 59 -82 23 -31 50 -72 59 -92 16 -34 16
-38 1 -55 -9 -10 -17 -22 -17 -25 0 -9 -33 -42 -51 -50 -8 -4 -27 -16 -44 -27
-16 -11 -37 -22 -45 -26 -8 -3 -28 -11 -45 -18 -67 -29 -132 -46 -176 -46 -48
0 -52 3 -131 90 -32 35 -93 80 -148 110 -26 14 -66 35 -88 47 -23 13 -43 19
-46 15 -9 -14 50 -77 90 -97 69 -35 103 -66 149 -135 25 -37 52 -74 61 -81 25
-21 174 -17 205 5 13 9 31 16 40 16 9 0 22 7 29 15 7 9 35 15 73 17 59 3 62 4
71 33 5 17 14 41 20 53 11 26 73 62 104 62 11 0 30 8 42 18 17 13 20 24 15 45
-4 15 -10 27 -14 27 -4 0 -23 21 -42 47 -18 26 -51 65 -71 87 -50 51 -50 70 0
62 98 -14 175 -16 257 -6 50 6 115 13 145 16 69 6 154 32 202 61 148 90 300
334 329 528 5 33 16 65 24 71 21 16 22 204 1 204 -14 0 -26 29 -26 62 0 16
-52 130 -83 183 -45 77 -157 195 -207 218 -8 4 -28 16 -45 27 -16 11 -39 24
-50 30 -11 6 -47 26 -80 44 -104 59 -243 124 -300 143 -16 5 -29 15 -27 21 1
8 -13 12 -38 12 -32 0 -40 -4 -40 -17z"/>
<path d="M5033 5209 c-18 -12 -33 -29 -33 -40 0 -15 7 -19 38 -19 21 0 43 -5
48 -10 19 -19 82 -47 92 -41 15 10 32 48 32 74 0 55 -112 78 -177 36z"/>
<path d="M3905 5190 c-18 -20 -15 -61 7 -87 11 -14 68 -18 68 -5 0 11 66 42
91 42 29 0 34 25 10 49 -30 30 -149 31 -176 1z"/>
<path d="M5325 5078 c-18 -57 -29 -242 -16 -266 16 -30 39 -28 51 4 6 14 17
32 25 41 13 13 18 13 32 1 9 -7 22 -26 30 -43 7 -16 17 -37 22 -45 7 -12 21
-57 47 -148 8 -27 24 1 24 42 0 72 30 84 90 36 58 -46 67 -41 49 30 -3 12 4
14 31 12 19 -2 63 -5 98 -8 l62 -6 0 39 c0 29 -8 46 -33 74 -32 35 -123 85
-182 100 -57 14 -151 50 -185 70 -8 5 -24 13 -35 18 -11 5 -37 21 -58 35 -43
30 -46 31 -52 14z"/>
<path d="M84 4823 c-3 -10 -10 -27 -17 -38 -6 -11 -14 -38 -18 -60 -3 -22 -11
-60 -17 -85 -17 -72 -32 -236 -32 -350 1 -98 11 -159 37 -220 44 -105 54 -193
28 -244 -8 -15 -15 -37 -15 -48 0 -11 -5 -29 -12 -41 -24 -44 -32 -136 -32
-337 0 -278 22 -454 76 -620 74 -223 76 -274 16 -445 -5 -16 -14 -46 -18 -65
-4 -19 -13 -48 -18 -65 -20 -55 -42 -154 -42 -182 1 -33 33 -130 49 -146 6 -6
11 -16 11 -23 0 -6 7 -17 15 -24 9 -7 15 -29 15 -54 0 -23 5 -57 10 -76 6 -19
14 -60 19 -90 5 -30 14 -68 19 -85 23 -64 42 -144 57 -240 9 -55 21 -123 27
-151 10 -51 6 -163 -10 -264 -10 -64 -40 -158 -53 -166 -5 -3 -9 -12 -9 -19 0
-8 -16 -48 -35 -89 -19 -41 -35 -82 -35 -90 0 -8 16 -23 35 -35 29 -17 35 -26
35 -55 0 -30 4 -36 40 -50 23 -9 70 -16 108 -16 37 0 98 -5 137 -10 62 -9 71
-9 82 7 7 9 11 25 7 35 -8 25 9 22 44 -7 22 -19 41 -25 75 -25 25 0 49 5 52
11 4 5 -6 28 -22 50 -46 64 -54 86 -68 177 -12 82 -21 115 -50 187 -38 90 -45
133 -45 250 1 66 5 140 11 165 5 25 14 72 18 105 12 86 31 174 47 220 8 23 14
51 14 64 0 14 6 47 14 75 27 95 38 170 46 331 5 88 13 180 19 205 6 25 11 66
11 92 0 26 7 64 16 85 106 248 200 350 355 382 19 4 41 11 47 15 14 8 62 -21
62 -39 0 -7 7 -18 15 -25 19 -15 19 -44 2 -78 -8 -15 -21 -44 -30 -64 -10 -21
-25 -55 -34 -75 -9 -21 -22 -51 -29 -68 -7 -16 -27 -61 -44 -100 -17 -38 -37
-83 -44 -100 -8 -16 -39 -82 -71 -146 -63 -129 -63 -115 -5 -204 19 -28 22
-35 35 -68 3 -6 9 -19 14 -27 5 -8 19 -35 31 -60 11 -25 25 -52 30 -60 25 -44
190 -390 200 -420 6 -19 15 -55 20 -80 11 -58 28 -130 45 -200 8 -30 16 -77
19 -105 3 -27 10 -70 15 -95 6 -25 10 -81 11 -126 l0 -81 84 -62 c46 -33 94
-77 107 -96 27 -38 43 -43 179 -47 l75 -3 3 48 c4 58 28 65 38 11 8 -44 36
-56 110 -48 58 7 77 21 50 36 -9 5 -16 22 -16 40 0 61 -33 131 -87 185 -29 28
-60 57 -70 65 -31 22 -80 91 -87 123 -4 17 -12 57 -17 90 -15 90 -40 207 -51
235 -6 14 -14 45 -18 70 -11 55 -27 121 -46 180 -8 25 -14 56 -14 70 0 14 -7
45 -16 69 -8 25 -16 82 -17 127 -2 78 0 84 31 128 17 26 32 52 32 59 0 7 5 18
11 24 6 6 14 26 19 44 5 19 18 59 30 89 12 30 26 71 30 90 4 19 14 51 20 70
31 86 40 117 40 132 0 33 22 37 130 23 137 -19 259 -18 338 0 68 16 71 15 115
-24 48 -44 95 -120 212 -346 31 -60 60 -117 65 -125 5 -8 11 -22 14 -30 4 -8
19 -37 35 -65 34 -58 56 -72 48 -29 -10 51 -29 118 -43 152 -8 18 -14 43 -14
56 0 13 -7 40 -15 59 -8 20 -15 48 -15 61 0 14 -6 40 -14 58 -15 36 -34 122
-46 208 -11 79 -31 169 -46 213 -8 20 -14 46 -14 56 0 10 -7 32 -15 47 -8 16
-15 39 -15 51 0 12 -6 37 -14 55 -8 18 -22 60 -31 93 -9 33 -21 74 -27 90 -6
17 -14 48 -18 70 -4 22 -11 48 -15 58 -18 44 29 214 123 441 22 53 22 143 -1
189 -18 37 -31 67 -63 146 -14 33 -18 71 -18 155 -1 105 1 115 32 177 17 36
32 71 32 76 0 6 7 16 15 23 8 7 15 22 15 33 0 11 7 28 16 38 9 10 14 25 10 34
-8 21 -26 10 -26 -16 0 -10 -4 -19 -9 -19 -5 0 -22 -21 -38 -46 -15 -26 -36
-58 -45 -73 -10 -14 -22 -35 -27 -46 -5 -11 -21 -37 -35 -58 -14 -21 -26 -44
-26 -52 0 -8 -6 -18 -13 -22 -12 -8 -24 -31 -81 -154 -35 -75 -34 -126 2 -165
69 -72 78 -115 34 -166 -49 -58 -62 -86 -62 -135 -1 -26 -5 -68 -11 -93 -6
-25 -13 -58 -16 -75 -11 -53 -42 -85 -84 -85 -32 0 -42 6 -66 37 -36 47 -51
104 -58 233 -8 126 -37 198 -80 200 -17 0 -35 -106 -45 -270 -5 -85 -14 -179
-20 -209 -5 -30 -10 -85 -10 -123 0 -93 -9 -108 -66 -108 -42 0 -49 4 -118 73
-57 56 -82 91 -114 158 -47 98 -74 129 -100 113 -20 -13 -29 -98 -13 -118 9
-10 15 -32 38 -122 3 -12 -3 -34 -12 -48 -15 -22 -25 -26 -64 -26 -44 0 -137
27 -184 53 -31 17 -51 44 -102 142 -14 28 -35 64 -45 80 -11 17 -24 39 -30 50
-5 11 -14 27 -19 35 -19 32 -41 92 -41 110 0 10 -6 31 -14 47 -7 15 -20 44
-28 63 -47 110 -93 190 -156 273 -54 71 -141 131 -112 78 13 -26 13 -61 -1
-61 -6 0 -60 45 -122 101 -109 100 -145 124 -160 110 -4 -4 4 -30 19 -57 14
-27 49 -94 77 -149 27 -55 56 -112 63 -127 8 -14 14 -43 14 -63 0 -20 5 -46
11 -57 17 -31 -7 -107 -37 -118 -26 -10 -122 -2 -130 11 -3 5 -9 9 -14 9 -8 0
7 -34 53 -115 12 -22 31 -76 42 -120 10 -44 25 -92 32 -107 28 -57 6 -98 -52
-98 -46 0 -51 -15 -21 -55 14 -18 26 -38 26 -44 0 -5 6 -22 14 -38 31 -61 76
-200 76 -233 0 -14 7 -43 15 -65 16 -47 20 -230 5 -287 -47 -179 -55 -195
-161 -300 -54 -54 -105 -114 -114 -135 -9 -21 -23 -51 -31 -66 -8 -16 -14 -36
-14 -45 0 -19 -32 -107 -42 -118 -8 -8 -48 55 -48 75 0 8 -7 23 -16 32 -14 15
-17 42 -16 153 0 130 7 176 43 281 6 17 18 64 27 105 13 63 13 88 4 155 -15
102 -15 273 -1 330 6 23 9 51 7 61 -4 16 -7 14 -16 -8 -6 -16 -16 -29 -22 -29
-5 -1 -15 -2 -21 -3 -11 -1 -34 53 -49 114 -4 19 -13 51 -19 70 -12 37 -16
635 -5 664 4 11 19 16 45 16 39 0 39 0 39 39 0 21 -7 52 -15 67 -8 16 -15 37
-15 46 0 9 -7 43 -15 75 -12 47 -15 141 -15 520 0 299 -4 464 -10 468 -6 3
-13 -2 -16 -12z m1196 -2242 c0 -10 7 -24 15 -31 8 -7 15 -17 15 -22 0 -11
119 -159 138 -171 6 -4 12 -14 12 -21 0 -8 7 -19 15 -26 9 -8 15 -30 15 -60 0
-30 -6 -52 -15 -60 -8 -7 -15 -19 -15 -27 0 -8 -6 -27 -14 -41 -8 -15 -17 -34
-20 -42 -4 -8 -15 -28 -26 -45 -18 -28 -22 -35 -35 -67 -3 -7 -9 -20 -14 -28
-5 -8 -12 -22 -15 -30 -3 -8 -10 -22 -14 -30 -41 -74 -54 -120 -32 -120 6 0
30 21 55 47 66 71 66 67 26 -259 -6 -43 -15 -86 -20 -97 -6 -11 -11 -35 -11
-53 0 -58 -41 -77 -72 -34 -14 19 -15 30 -6 62 28 107 17 182 -17 110 -23 -48
-34 -53 -56 -25 -14 18 -19 46 -21 114 l-3 90 -22 -22 c-27 -27 -31 -28 -55
-6 -20 18 -26 107 -7 118 5 4 15 17 20 28 11 24 21 41 62 104 48 76 29 86 -36
20 -53 -55 -103 -85 -117 -71 -8 8 -7 18 0 35 16 36 37 71 47 78 16 12 73 102
73 116 0 8 6 29 14 47 21 51 46 142 46 171 0 14 5 38 11 54 6 15 15 60 20 100
4 40 13 82 19 93 13 25 40 26 40 1z m-855 -860 l50 -66 -2 -248 c-2 -178 -7
-266 -18 -313 -8 -36 -15 -81 -15 -100 0 -19 -7 -51 -15 -71 -8 -19 -15 -46
-15 -58 0 -13 -11 -45 -24 -72 -34 -67 -35 -75 -6 -83 17 -4 26 -14 28 -31 3
-24 -9 -39 -110 -132 -21 -20 -20 -41 3 -44 110 -14 123 -30 73 -90 -32 -39
-36 -40 -70 -33 -21 5 -40 12 -43 17 -3 4 -15 13 -26 19 -11 6 -28 27 -37 46
-15 31 -15 41 -4 84 7 27 30 76 52 109 69 108 91 165 111 300 13 83 14 113 4
175 -12 76 -36 139 -58 153 -16 10 -17 39 -1 55 26 26 41 127 42 277 1 83 -3
160 -7 172 -15 41 35 4 88 -66z"/>
<path d="M3860 4792 c0 -21 5 -76 11 -122 12 -88 0 -184 -28 -225 -19 -28 -17
-33 17 -40 27 -6 90 -70 90 -91 0 -23 75 -157 110 -196 36 -41 45 -46 92 -50
29 -3 78 -17 109 -31 31 -15 63 -27 71 -27 9 0 21 -7 28 -15 7 -8 16 -15 21
-15 5 0 37 -13 71 -29 101 -47 195 -66 186 -38 -5 13 -27 25 -98 53 -25 10
-52 24 -60 31 -9 7 -37 14 -63 16 -38 4 -58 13 -97 46 -42 36 -55 41 -98 41
-38 0 -53 5 -70 23 -26 28 -29 88 -7 131 23 44 19 64 -12 68 -26 3 -28 6 -31
57 -2 31 4 75 12 102 33 100 9 135 -33 49 -13 -26 -32 -51 -42 -53 -21 -6 -30
19 -50 130 -6 32 -22 76 -37 98 -14 22 -36 58 -48 80 -29 53 -44 56 -44 7z"/>
<path d="M4845 4790 c-8 -12 2 -30 17 -30 24 0 137 -103 138 -126 0 -6 7 -17
15 -24 8 -7 15 -22 15 -34 0 -11 7 -30 15 -40 21 -28 21 -244 0 -272 -8 -10
-15 -27 -15 -37 0 -21 -144 -166 -232 -233 -31 -24 -66 -44 -77 -44 -25 0 -38
-19 -20 -31 8 -5 29 -9 47 -9 18 0 42 -8 53 -19 l20 -18 -22 -43 c-20 -39 -77
-106 -169 -199 -34 -35 -34 -36 -12 -39 13 -2 32 4 41 12 10 9 22 16 28 16 6
0 13 7 17 15 3 8 10 15 17 15 6 0 28 14 49 30 37 29 100 42 100 20 0 -16 -61
-110 -71 -110 -5 0 -9 -5 -9 -11 0 -18 -58 -89 -133 -161 -61 -60 -73 -68
-107 -68 -33 0 -46 8 -89 49 -49 47 -50 50 -38 81 10 27 10 33 -6 44 -24 18
-21 42 8 80 l25 33 -23 21 c-13 12 -28 22 -35 22 -18 0 -24 18 -12 40 7 13 21
20 40 20 37 0 100 29 100 47 0 10 -20 13 -76 13 -48 0 -90 6 -112 16 -91 39
-130 59 -169 86 -23 15 -46 28 -52 28 -20 0 -11 -42 19 -92 17 -26 30 -53 30
-58 0 -6 5 -10 10 -10 6 0 15 -10 20 -22 6 -13 18 -35 28 -49 44 -67 92 -147
92 -153 0 -13 -25 -5 -56 19 -18 14 -40 25 -48 25 -20 0 -21 -24 -1 -40 8 -7
15 -20 15 -29 0 -9 7 -25 15 -35 18 -24 20 -77 3 -94 -16 -16 -40 -15 -75 3
-15 7 -48 23 -73 35 -41 19 -58 28 -100 52 -8 4 -22 11 -30 14 -8 3 -23 10
-33 15 -30 16 -36 1 -20 -49 23 -68 82 -151 144 -200 176 -141 183 -169 122
-484 -13 -67 -14 -91 -5 -100 9 -9 14 -6 22 13 11 25 23 44 81 131 42 62 55
99 65 188 4 38 14 74 25 88 23 30 85 72 107 72 9 1 28 7 42 15 14 8 33 14 44
15 43 0 146 118 146 167 0 15 20 48 65 108 29 38 41 53 108 131 23 27 77 64
94 64 8 0 2 -65 -10 -93 -21 -49 -47 -133 -47 -150 0 -9 4 -19 10 -22 19 -12
83 165 109 300 7 39 12 57 45 161 9 29 16 59 16 68 0 8 6 30 14 48 8 18 17 41
20 51 8 26 44 5 52 -31 3 -15 12 -44 20 -65 8 -20 14 -57 14 -82 0 -24 4 -55
10 -69 5 -14 12 -77 16 -141 4 -64 11 -114 16 -113 6 2 18 28 29 58 34 96 26
202 -27 371 -8 26 -14 55 -14 66 0 10 -5 24 -10 29 -29 29 -50 300 -30 386 26
110 38 183 33 191 -7 12 -53 -33 -53 -52 0 -9 -7 -29 -15 -45 -8 -15 -15 -41
-15 -57 0 -15 -5 -31 -11 -34 -14 -9 -49 33 -49 59 0 12 -7 30 -15 40 -8 11
-15 30 -15 42 0 36 -63 131 -111 167 -48 37 -94 53 -104 37z"/>
<path d="M4266 4625 c-10 -15 -16 -45 -16 -79 0 -51 3 -57 37 -85 21 -17 46
-31 57 -31 11 0 30 -10 42 -21 17 -16 30 -20 48 -15 23 6 26 11 26 55 0 44 -4
53 -41 90 -23 22 -46 41 -53 41 -16 1 -51 32 -59 53 -9 24 -22 21 -41 -8z"/>
<path d="M4910 4629 c0 -12 -40 -48 -55 -49 -15 -1 -59 -42 -78 -72 -9 -15
-17 -45 -17 -67 0 -35 4 -42 25 -47 17 -4 33 1 51 15 15 12 35 21 45 21 10 0
34 14 54 31 33 29 35 35 35 89 0 40 -5 64 -16 74 -18 18 -44 21 -44 5z"/>
<path d="M4350 4323 c-62 -27 -65 -30 -74 -57 -14 -38 4 -54 45 -39 41 16 63
1 98 -64 19 -36 35 -51 61 -60 40 -14 148 -7 230 13 30 8 71 14 92 14 26 0 38
4 38 14 0 22 -75 30 -195 22 -147 -10 -215 12 -215 68 0 34 19 45 89 54 111
16 331 -23 331 -57 0 -4 17 -13 37 -19 30 -9 42 -9 60 3 20 13 21 18 10 36
-16 28 -65 47 -172 70 -118 25 -381 26 -435 2z"/>
<path d="M3490 4144 c-11 -26 -20 -51 -20 -56 0 -6 -6 -22 -14 -36 -21 -41
-37 -92 -46 -144 -5 -26 -13 -56 -19 -67 -21 -38 -7 -115 14 -81 3 5 19 10 36
10 35 0 37 -16 14 -103 -23 -87 -24 -171 -2 -194 9 -11 17 -26 17 -34 0 -17
-52 -59 -73 -59 -8 0 -20 -7 -27 -15 -7 -8 -19 -15 -27 -15 -36 0 -106 -111
-87 -141 8 -14 42 -11 69 7 13 8 36 14 52 12 22 -2 29 -9 31 -30 2 -15 -4 -40
-12 -57 -9 -16 -16 -48 -16 -69 0 -49 23 -72 115 -115 17 -8 56 -42 87 -75 80
-87 89 -81 37 28 -65 136 -89 208 -89 267 0 36 4 44 33 61 17 11 61 23 97 27
35 3 68 9 73 12 12 7 -23 43 -43 43 -10 0 -23 7 -30 15 -7 8 -19 15 -27 15
-31 0 -6 34 35 48 57 19 72 50 72 151 0 45 5 83 11 86 5 4 15 17 20 28 6 12
19 38 29 57 29 53 23 187 -8 198 -6 2 -15 -5 -18 -15 -4 -10 -19 -46 -35 -81
-16 -34 -29 -71 -29 -81 0 -28 -11 -52 -21 -45 -15 9 -10 109 7 150 13 31 14
48 5 93 -6 31 -12 67 -13 81 -9 81 -67 -50 -68 -152 0 -26 -4 -49 -9 -52 -31
-20 -81 165 -81 299 0 41 -4 75 -10 75 -5 0 -18 -21 -30 -46z"/>
<path d="M5180 3440 c0 -14 -86 -139 -123 -178 -39 -41 -142 -122 -155 -122
-11 0 -112 -94 -112 -105 0 -3 -20 -33 -45 -65 -25 -32 -45 -62 -45 -65 0 -4
-13 -24 -30 -45 -16 -21 -30 -42 -30 -47 0 -22 -172 -183 -196 -183 -2 0 -23
-17 -45 -37 -24 -22 -35 -39 -29 -43 11 -7 74 10 135 36 17 7 37 15 45 18 8 4
30 15 48 26 107 65 -57 -104 -263 -270 -44 -36 -91 -77 -105 -92 -24 -27 -52
-34 -84 -22 -23 9 -20 32 12 73 16 20 32 44 35 54 4 9 11 17 17 17 5 0 10 7
10 15 0 23 -18 18 -60 -15 -21 -16 -43 -30 -49 -30 -6 0 -11 -4 -11 -10 0 -8
-61 -40 -76 -40 -10 0 0 21 36 78 63 96 51 124 -21 50 -59 -61 -88 -78 -136
-78 -41 0 -103 26 -103 44 0 11 28 34 58 46 12 5 22 14 22 20 0 15 -43 12 -76
-5 -16 -8 -36 -15 -45 -15 -9 0 -33 -7 -52 -15 -43 -18 -77 -19 -77 -4 0 13
41 48 56 49 7 0 25 7 40 15 16 8 37 15 48 15 25 0 90 41 79 50 -8 8 -158 -20
-203 -38 -47 -18 -130 -25 -130 -11 0 17 50 89 61 89 5 0 9 9 9 20 0 11 -6 20
-13 20 -8 0 -22 -9 -32 -20 -10 -11 -22 -20 -26 -20 -4 0 -20 -11 -35 -25 -37
-35 -62 -29 -101 25 -49 68 -68 82 -131 102 -76 24 -272 26 -272 3 0 -9 9 -15
23 -15 12 0 35 -7 51 -15 15 -8 35 -15 43 -15 8 0 27 -6 41 -14 15 -7 58 -28
96 -47 37 -19 79 -47 92 -62 31 -37 32 -86 2 -114 -23 -20 -24 -20 -53 -2 -73
46 -144 59 -197 39 -58 -22 -112 -50 -138 -69 l-25 -19 29 -8 c15 -3 68 -4
118 -2 98 6 128 2 128 -16 0 -16 -64 -46 -98 -46 -41 0 -72 -26 -72 -60 0 -18
-11 -42 -30 -63 -16 -19 -30 -43 -30 -54 0 -11 -13 -29 -30 -41 -51 -38 -40
-52 39 -52 39 0 73 5 76 10 3 6 15 10 26 10 29 0 18 -28 -39 -103 l-46 -60 32
-27 c18 -15 32 -36 32 -49 0 -32 -37 -77 -81 -97 -46 -20 -49 -33 -10 -58 15
-11 43 -41 61 -67 27 -40 32 -57 33 -106 0 -34 -6 -72 -15 -89 -8 -16 -22 -44
-31 -62 -32 -63 -16 -102 21 -52 12 16 22 32 22 35 0 17 57 77 85 91 30 14 36
14 62 0 15 -8 44 -28 63 -45 l35 -30 -17 -31 c-10 -17 -18 -36 -18 -42 0 -6
-13 -27 -30 -48 -16 -21 -30 -41 -30 -45 0 -4 -13 -24 -30 -45 -16 -21 -30
-41 -30 -45 0 -4 -13 -24 -30 -45 -16 -21 -30 -41 -30 -45 0 -4 -13 -24 -28
-44 -16 -20 -32 -43 -36 -51 -8 -18 -25 -46 -50 -83 -22 -32 -16 -42 26 -42
l31 0 -2 -195 c-2 -213 4 -243 50 -248 17 -2 34 7 54 27 35 35 38 36 59 15 22
-21 20 -92 -3 -127 -20 -31 -72 -67 -96 -67 -17 0 -85 41 -114 68 -10 9 -34
32 -54 51 l-36 34 -12 -26 c-6 -14 -25 -31 -42 -36 -41 -15 -23 -34 47 -50
l54 -12 18 -91 c23 -111 29 -115 136 -100 40 6 87 8 105 5 29 -5 33 -2 38 23
11 47 14 54 25 54 5 0 10 -15 10 -34 0 -50 16 -57 117 -54 l88 3 3 89 c3 86
-9 148 -43 216 -16 34 -36 89 -42 120 -5 26 -13 46 -62 150 -17 36 -31 72 -31
80 0 8 -7 24 -15 34 -8 11 -15 29 -15 40 0 12 -7 39 -15 61 -19 55 -19 146 2
192 9 21 35 79 58 128 75 161 77 270 11 463 -24 69 -25 84 -24 275 1 134 -3
217 -11 246 -10 33 -10 55 -1 95 6 28 13 60 15 71 7 33 62 87 102 102 67 23
188 14 243 -18 8 -5 22 -12 30 -15 8 -3 27 -12 42 -20 18 -10 60 -14 137 -14
119 0 134 -5 194 -59 l29 -26 -2 -165 c-1 -91 -2 -173 -1 -182 2 -30 19 -20
26 15 17 74 133 258 193 303 20 15 56 45 78 67 70 65 113 92 126 79 9 -9 6
-17 -10 -35 -12 -13 -22 -27 -22 -31 0 -5 -13 -24 -30 -43 -29 -32 -39 -63
-22 -63 10 0 153 119 170 143 7 9 19 17 27 17 11 0 12 -7 4 -32 -5 -17 -13
-36 -19 -42 -5 -5 -10 -19 -10 -29 0 -10 -6 -31 -14 -45 -8 -15 -31 -67 -51
-117 -47 -113 -83 -196 -96 -215 -5 -8 -12 -22 -15 -30 -40 -104 -128 -240
-145 -223 -5 5 -9 41 -11 82 -2 46 -8 76 -15 78 -23 8 -37 -42 -39 -137 -1
-52 -3 -101 -3 -107 -2 -25 -41 -14 -53 15 -6 15 -17 41 -24 59 -8 17 -14 42
-14 56 0 14 -10 56 -22 93 l-23 69 -3 -55 c-3 -59 11 -157 33 -230 69 -228 81
-530 27 -712 -5 -18 -17 -56 -26 -84 -9 -29 -16 -58 -16 -65 0 -8 -7 -27 -16
-44 -13 -22 -17 -58 -18 -137 -1 -125 7 -142 51 -110 l29 21 25 -23 c13 -13
34 -35 47 -50 12 -15 27 -24 33 -20 11 6 3 61 -11 79 -4 6 -22 38 -39 72 -30
59 -33 62 -57 53 -34 -13 -34 -13 -34 10 0 44 64 280 96 358 8 18 14 41 14 50
0 10 7 27 15 38 8 10 15 28 15 40 0 11 7 29 15 40 21 28 18 41 -10 48 -24 6
-25 10 -25 75 0 82 22 138 80 205 38 44 62 65 98 88 l33 20 23 -21 c28 -26 39
-82 39 -196 1 -134 -10 -187 -59 -288 -8 -16 -14 -36 -14 -46 0 -9 -4 -21 -9
-27 -5 -5 -19 -34 -31 -64 -12 -30 -29 -71 -37 -90 -50 -115 -66 -161 -70
-213 -4 -41 -3 -47 14 -47 10 0 33 13 51 30 61 55 84 35 48 -42 -56 -121 -58
-127 -39 -158 23 -40 12 -60 -36 -60 -27 0 -44 6 -51 18 -9 14 -10 12 -5 -13
3 -16 8 -52 12 -78 9 -72 33 -87 144 -87 121 0 158 16 159 68 0 13 6 22 15 22
10 0 15 -10 15 -29 0 -47 43 -67 117 -56 l45 7 -7 46 c-4 26 -11 52 -15 57 -5
6 -18 39 -30 75 -13 36 -28 71 -34 79 -6 8 -16 50 -23 95 -14 100 -31 160 -70
253 -7 17 -13 38 -13 47 0 8 -6 30 -14 48 -8 18 -22 67 -32 108 l-17 76 47 93
c50 101 60 169 31 207 -17 23 -19 136 -4 204 6 25 14 66 18 93 4 26 13 53 19
59 7 7 12 24 12 38 0 14 7 35 15 46 8 10 15 27 15 37 0 11 6 31 14 45 7 15 22
45 31 67 10 22 24 52 32 67 7 14 13 32 13 40 0 8 5 19 12 26 12 12 34 68 48
121 5 18 13 38 19 44 6 6 11 22 11 37 1 14 7 36 15 50 8 14 14 36 15 49 0 13
6 44 14 70 14 45 32 129 46 221 21 135 53 270 71 300 5 8 12 22 15 30 17 44
42 89 67 121 15 20 27 40 27 45 0 4 6 15 14 23 8 9 24 57 36 106 12 50 26 94
31 100 5 5 9 18 9 30 0 11 7 33 15 49 19 36 19 56 0 56 -8 0 -15 -4 -15 -10z"/>
<path d="M2752 1618 c5 -32 28 -35 28 -4 0 17 -5 26 -16 26 -10 0 -14 -7 -12
-22z"/>
<path d="M2780 1468 c1 -100 9 -139 50 -233 7 -16 19 -44 26 -62 18 -41 18
-154 0 -245 -39 -198 -58 -445 -38 -498 l10 -25 10 25 c5 14 15 99 21 190 17
227 46 323 122 398 39 40 54 81 32 89 -7 3 -17 -6 -22 -20 -13 -33 -42 -43
-59 -20 -30 42 -36 92 -23 187 24 160 25 206 7 206 -10 0 -16 -9 -16 -23 0
-25 -32 -89 -47 -94 -18 -6 -36 52 -42 136 -4 54 -10 86 -18 89 -10 3 -13 -21
-13 -100z"/>
</g>
</svg>
